<?xml version="1.0" standalone="no"?><!DOCTYPE svg PUBLIC "-//W3C//DTD SVG 1.1//EN" "http://www.w3.org/Graphics/SVG/1.1/DTD/svg11.dtd"><svg t="1729404541820" class="icon" viewBox="0 0 1024 1024" version="1.1" xmlns="http://www.w3.org/2000/svg" p-id="52122" xmlns:xlink="http://www.w3.org/1999/xlink" width="200" height="200"><path d="M0 0m146.285714 0l731.428572 0q146.285714 0 146.285714 146.285714l0 731.428572q0 146.285714-146.285714 146.285714l-731.428572 0q-146.285714 0-146.285714-146.285714l0-731.428572q0-146.285714 146.285714-146.285714Z" fill="#FF7575" p-id="52123"></path><path d="M855.844571 534.820571h-118.930285V461.092571c61.732571 0 111.689143-45.860571 111.689143-102.4 0-3.291429-2.925714-5.924571-6.436572-5.924571h-48.201143c-3.510857 0-6.436571 2.633143-6.436571 5.851429 0 25.673143-22.674286 46.445714-50.614857 46.445714H287.012571c-28.013714 0-50.614857-20.772571-50.614857-46.445714 0-3.218286-2.925714-5.851429-6.436571-5.851429h-48.274286c-3.510857 0-6.363429 2.633143-6.363428 5.851429 0 56.612571 49.956571 102.473143 111.689142 102.473142v73.728H168.082286c-3.510857 0-6.436571 2.633143-6.436572 5.851429v41.325714c0 3.218286 2.925714 5.851429 6.436572 5.851429h118.930285v70.802286c0 4.754286 0.146286 9.581714 0.512 14.189714-55.076571 21.650286-93.769143 71.826286-93.769142 130.267428 0 3.218286 2.925714 5.851429 6.436571 5.851429h44.982857c3.584 0 6.436571-2.633143 6.436572-5.851429 0-32.548571 19.236571-61.074286 47.908571-76.434285 4.827429 12.653714 10.971429 24.795429 18.285714 36.132571 19.456 30.573714 47.323429 56.173714 80.676572 74.093714 23.259429 12.434286 49.005714 21.211429 76.580571 25.380572 3.584 0 6.436571-2.633143 6.436572-5.851429v-342.308571c0-3.218286 2.925714-5.851429 6.436571-5.851429h48.274286c3.437714 0 6.363429 2.633143 6.363428 5.851429v342.235428c0 3.218286 2.925714 5.851429 6.436572 5.851429 27.574857-4.169143 53.394286-12.946286 76.580571-25.380571a217.746286 217.746286 0 0 0 80.749714-74.093715c7.314286-11.410286 13.385143-23.552 18.285715-36.132571 28.452571 15.36 47.689143 43.885714 47.689143 76.507428 0 3.218286 2.925714 5.851429 6.436571 5.851429h44.982857c3.510857 0 6.436571-2.633143 6.436572-5.851429 0-58.441143-38.692571-108.617143-93.769143-130.194285 0.292571-4.754286 0.512-9.508571 0.512-14.262857v-70.729143h118.930285c3.510857 0 6.436571-2.706286 6.436572-5.924572v-41.252571c0-3.291429-2.925714-5.924571-6.436572-5.924572z" fill="#FFFFFF" p-id="52124"></path><path d="M358.619429 352.768h306.688c3.218286 0 5.851429-3.218286 5.851428-7.094857a231.131429 231.131429 0 0 0-19.017143-95.597714 152.356571 152.356571 0 0 0-54.637714-65.462858 143.725714 143.725714 0 0 0-79.725714-22.893714h-11.702857c-29.476571 0-56.539429 7.753143-79.725715 22.893714a152.356571 152.356571 0 0 0-54.564571 65.462858 231.131429 231.131429 0 0 0-19.017143 95.597714c0 3.876571 2.633143 7.094857 5.851429 7.094857z" fill="#FFFFFF" p-id="52125"></path></svg>